<?xml version="1.0" encoding="UTF-8" standalone="no"?>
<svg xmlns="http://www.w3.org/2000/svg" version="1.0" width="1294.000000pt" height="1031.000000pt" viewBox="0 0 1294.000000 1031.000000" preserveAspectRatio="xMidYMid meet">
  <g transform="translate(0.000000,1031.000000) scale(0.100000,-0.100000)" fill="#000000" stroke="none">
    <path d="M5738 9960 c-133 -193 -244 -355 -246 -360 -2 -6 59 -10 169 -10 l173 0 361 360 360 360 -287 0 -286 0 -244 -350z"></path>
    <path d="M3800 7430 l0 -2450 -1900 0 -1900 0 0 -40 0 -40 1900 0 1900 0 0 -2450 0 -2450 40 0 40 0 0 2450 0 2450 1895 0 1895 0 0 -2450 0 -2450 45 0 45 0 0 4940 0 4940 -45 0 -45 0 0 -2450 0 -2450 -1895 0 -1895 0 0 2450 0 2450 -40 0 -40 0 0 -2450z"></path>
    <path d="M870 7506 l0 -1816 285 0 285 0 0 805 0 805 249 0 c279 0 369 -11 452 -57 115 -62 163 -172 188 -433 6 -58 15 -260 21 -450 10 -304 33 -641 47 -662 2 -5 137 -8 299 -8 277 0 295 1 290 18 -27 97 -54 431 -66 811 -13 440 -26 552 -77 696 -61 168 -167 255 -359 294 l-84 17 57 18 c181 56 346 191 417 338 66 137 87 245 93 463 4 146 2 214 -11 292 -60 384 -239 571 -626 656 -90 19 -133 20 -777 24 l-683 4 0 -1815z m1152 1370 c201 -36 313 -146 354 -346 20 -101 15 -346 -10 -448 -32 -129 -100 -224 -196 -272 -111 -56 -151 -62 -452 -67 l-278 -5 0 576 0 576 253 0 c168 -1 278 -5 329 -14z"></path>
    <path d="M4850 7505 l0 -1815 945 0 945 0 0 215 0 215 -655 0 -655 0 0 620 0 620 595 0 595 0 0 215 0 215 -595 0 -595 0 0 550 0 550 640 0 640 0 0 215 0 215 -930 0 -930 0 0 -1815z"></path>
    <path d="M9110 9120 c0 -183 1 -190 20 -190 19 0 20 7 20 104 0 110 9 136 49 136 34 0 41 -21 41 -132 0 -101 1 -108 20 -108 19 0 20 7 20 115 0 102 -2 117 -20 135 -24 24 -57 26 -88 4 l-22 -15 0 70 c0 64 -2 71 -20 71 -19 0 -20 -7 -20 -190z"></path>
    <path d="M8285 9238 c-7 -18 -48 -114 -89 -212 -44 -103 -76 -193 -76 -212 l0 -34 105 0 105 0 0 -75 0 -75 35 0 35 0 0 75 0 75 35 0 c32 0 35 2 35 30 0 28 -3 30 -35 30 l-35 0 0 215 0 215 -51 0 c-47 0 -51 -2 -64 -32z m45 -223 l0 -175 -76 0 c-57 0 -75 3 -71 13 10 23 129 312 134 325 3 6 7 12 9 12 2 0 4 -79 4 -175z"></path>
    <path d="M8540 9240 l0 -30 121 0 c120 0 120 0 113 -22 -3 -13 -44 -141 -90 -286 -46 -144 -84 -264 -84 -267 0 -3 17 -5 38 -5 l37 0 88 293 c48 160 87 304 87 320 l0 27 -155 0 -155 0 0 -30z"></path>
    <path d="M8988 9249 c-10 -6 -18 -21 -18 -34 0 -18 -5 -25 -20 -25 -11 0 -20 -7 -20 -15 0 -8 9 -15 20 -15 19 0 20 -7 20 -105 0 -114 6 -125 64 -125 34 0 37 37 4 42 -22 3 -23 8 -26 96 -3 87 -2 92 18 92 11 0 20 7 20 15 0 8 -9 15 -19 15 -15 0 -21 8 -23 34 -3 30 -5 33 -20 25z"></path>
    <path d="M8160 7960 l0 -320 40 0 40 0 0 320 0 320 -40 0 -40 0 0 -320z"></path>
    <path d="M10810 8240 c0 -39 1 -40 35 -40 34 0 35 1 35 40 0 39 -1 40 -35 40 -34 0 -35 -1 -35 -40z"></path>
    <path d="M12240 7960 l0 -320 35 0 35 0 0 320 0 320 -35 0 -35 0 0 -320z"></path>
    <path d="M8863 8183 c-30 -12 -33 -17 -33 -53 0 -39 -1 -40 -35 -40 -31 0 -35 -3 -35 -25 0 -22 4 -25 34 -25 l35 0 3 -180 c4 -209 4 -211 92 -218 l56 -4 0 31 c0 27 -3 31 -28 31 -49 0 -52 11 -52 182 l0 158 40 0 c36 0 40 3 40 25 0 22 -4 25 -40 25 l-39 0 -3 53 -3 54 -32 -14z"></path>
    <path d="M10603 8183 c-30 -12 -33 -17 -33 -53 0 -39 -1 -40 -35 -40 -31 0 -35 -3 -35 -25 0 -22 4 -25 34 -25 l35 0 3 -180 c4 -209 4 -211 92 -218 l56 -4 0 31 c0 27 -3 31 -28 31 -49 0 -52 11 -52 182 l0 158 40 0 c36 0 40 3 40 25 0 22 -4 25 -40 25 l-39 0 -3 53 -3 54 -32 -14z"></path>
    <path d="M8502 8083 c-19 -9 -36 -22 -39 -30 -9 -22 -23 -15 -23 12 0 21 -5 25 -30 25 l-30 0 0 -225 0 -225 35 0 35 0 0 155 c0 198 20 254 90 255 62 0 70 -28 70 -234 l0 -176 35 0 35 0 0 188 c0 169 -2 190 -20 220 -32 52 -95 66 -158 35z"></path>
    <path d="M9155 8093 c-60 -16 -94 -81 -102 -197 -11 -164 27 -247 121 -261 92 -14 162 27 176 104 l7 41 -33 0 c-30 0 -34 -4 -44 -40 -12 -43 -33 -60 -78 -60 -45 0 -71 36 -78 108 l-7 62 122 0 121 0 0 45 c0 132 -41 194 -131 200 -30 2 -63 1 -74 -2z m104 -66 c14 -15 24 -42 28 -75 l6 -52 -87 0 c-48 0 -86 4 -86 10 0 40 25 112 43 125 31 22 70 18 96 -8z"></path>
    <path d="M9590 8089 c-14 -6 -35 -20 -47 -31 l-23 -21 0 26 c0 23 -4 27 -30 27 l-30 0 0 -225 0 -225 35 0 35 0 0 160 c0 124 3 168 15 190 18 34 43 50 79 50 22 0 26 4 26 30 0 33 -14 37 -60 19z"></path>
    <path d="M9852 8083 c-19 -9 -36 -22 -39 -30 -9 -22 -23 -15 -23 12 0 21 -5 25 -30 25 l-30 0 0 -225 0 -225 35 0 35 0 0 155 c0 198 20 254 90 255 62 0 70 -28 70 -234 l0 -176 35 0 35 0 0 188 c0 169 -2 190 -20 220 -32 52 -95 66 -158 35z"></path>
    <path d="M10245 8094 c-39 -10 -67 -29 -81 -56 -23 -45 -18 -58 21 -58 28 0 35 4 35 19 0 27 37 51 77 51 41 0 63 -30 63 -86 l0 -41 -62 -7 c-111 -13 -153 -46 -164 -129 -9 -66 22 -131 71 -147 47 -15 97 -6 135 26 l30 26 0 -26 c0 -23 4 -26 33 -26 l32 0 -3 172 c-3 208 -6 229 -36 257 -24 22 -106 36 -151 25z m113 -295 c-3 -63 -7 -74 -31 -95 -59 -50 -118 -20 -119 60 -2 70 37 104 116 105 l38 1 -4 -71z"></path>
    <path d="M11071 8083 c-19 -10 -43 -30 -53 -44 -46 -62 -48 -286 -4 -351 43 -65 170 -76 228 -21 38 37 48 79 47 208 0 123 -12 169 -50 197 -37 28 -125 34 -168 11z m109 -43 c29 -15 40 -65 40 -177 0 -150 -24 -193 -100 -181 -56 8 -83 119 -65 263 10 87 64 128 125 95z"></path>
    <path d="M11532 8083 c-19 -9 -36 -22 -39 -30 -9 -22 -23 -15 -23 12 0 21 -5 25 -30 25 l-30 0 0 -225 0 -225 35 0 35 0 0 155 c0 198 20 254 90 255 62 0 70 -28 70 -234 l0 -176 35 0 35 0 0 188 c0 169 -2 190 -20 220 -32 52 -95 66 -158 35z"></path>
    <path d="M11925 8094 c-39 -10 -67 -29 -81 -56 -23 -45 -18 -58 21 -58 28 0 35 4 35 19 0 27 37 51 77 51 41 0 63 -30 63 -86 l0 -41 -62 -7 c-111 -13 -153 -46 -164 -129 -9 -66 22 -131 71 -147 47 -15 97 -6 135 26 l30 26 0 -26 c0 -23 4 -26 33 -26 l32 0 -3 172 c-3 208 -6 229 -36 257 -24 22 -106 36 -151 25z m113 -295 c-3 -63 -7 -74 -31 -95 -59 -50 -118 -20 -119 60 -2 70 37 104 116 105 l38 1 -4 -71z"></path>
    <path d="M10810 7865 l0 -225 35 0 35 0 0 225 0 225 -35 0 -35 0 0 -225z"></path>
    <path d="M8160 6979 l0 -321 123 4 c218 7 250 50 250 335 -1 140 -3 156 -24 200 -42 83 -89 102 -251 103 l-98 0 0 -321z m236 242 c47 -29 58 -73 59 -236 0 -219 -27 -265 -155 -265 l-60 0 0 260 0 260 63 0 c43 0 71 -6 93 -19z"></path>
    <path d="M11363 7203 c-30 -12 -33 -17 -33 -53 0 -39 -1 -40 -35 -40 -31 0 -35 -3 -35 -25 0 -22 4 -25 34 -25 l35 0 3 -180 c4 -209 4 -211 92 -218 l56 -4 0 31 c0 27 -3 31 -28 31 -49 0 -52 11 -52 182 l0 158 40 0 c36 0 40 3 40 25 0 22 -4 25 -40 25 l-39 0 -3 53 -3 54 -32 -14z"></path>
    <path d="M8731 7103 c-19 -10 -43 -30 -53 -44 -46 -62 -48 -286 -4 -351 43 -65 170 -76 228 -21 38 37 48 79 47 208 0 123 -12 169 -50 197 -37 28 -125 34 -168 11z m109 -43 c29 -15 40 -65 40 -177 0 -150 -24 -193 -100 -181 -56 8 -83 119 -65 263 10 87 64 128 125 95z"></path>
    <path d="M9130 7108 c-25 -9 -42 -26 -60 -58 -23 -41 -25 -55 -25 -170 0 -108 3 -130 20 -160 37 -63 124 -87 200 -56 37 16 55 43 65 99 7 37 7 37 -26 37 -29 0 -33 -4 -39 -32 -10 -46 -33 -68 -70 -68 -45 0 -65 27 -76 106 -17 119 5 242 46 258 50 19 87 -4 100 -61 6 -28 11 -33 36 -33 27 0 29 2 29 40 0 62 -39 100 -110 106 -31 2 -70 -1 -90 -8z"></path>
    <path d="M9966 7095 c-34 -23 -36 -23 -36 -5 0 16 -7 20 -35 20 l-35 0 0 -225 0 -225 34 0 35 0 3 174 c3 159 5 177 24 203 25 34 68 42 95 17 17 -16 19 -33 19 -206 l0 -188 34 0 34 0 4 179 c3 174 4 180 27 205 29 31 71 34 94 8 15 -16 17 -46 17 -205 l0 -187 35 0 35 0 0 185 c0 208 -8 247 -57 266 -42 16 -101 5 -134 -27 -25 -24 -29 -25 -35 -10 -9 22 -56 46 -92 46 -16 0 -46 -11 -66 -25z"></path>
    <path d="M10575 7113 c-60 -16 -94 -81 -102 -197 -11 -164 27 -247 121 -261 92 -14 162 27 176 104 l7 41 -33 0 c-30 0 -34 -4 -44 -40 -12 -43 -33 -60 -78 -60 -45 0 -71 36 -78 108 l-7 62 122 0 121 0 0 45 c0 132 -41 194 -131 200 -30 2 -63 1 -74 -2z m104 -66 c14 -15 24 -42 28 -75 l6 -52 -87 0 c-48 0 -86 4 -86 10 0 40 25 112 43 125 31 22 70 18 96 -8z"></path>
    <path d="M11002 7103 c-19 -9 -36 -22 -39 -30 -9 -22 -23 -15 -23 12 0 21 -5 25 -30 25 l-30 0 0 -225 0 -225 35 0 35 0 0 155 c0 198 20 254 90 255 62 0 70 -28 70 -234 l0 -176 35 0 35 0 0 188 c0 169 -2 190 -20 220 -32 52 -95 66 -158 35z"></path>
    <path d="M11655 7114 c-39 -10 -67 -29 -81 -56 -23 -45 -18 -58 21 -58 28 0 35 4 35 19 0 27 37 51 77 51 41 0 63 -30 63 -86 l0 -41 -62 -7 c-111 -13 -153 -46 -164 -129 -9 -66 22 -131 71 -147 47 -15 97 -6 135 26 l30 26 0 -26 c0 -23 4 -26 33 -26 l32 0 -3 172 c-3 208 -6 229 -36 257 -24 22 -106 36 -151 25z m113 -295 c-3 -63 -7 -74 -31 -95 -59 -50 -118 -20 -119 60 -2 70 37 104 116 105 l38 1 -4 -71z"></path>
    <path d="M12100 7109 c-14 -6 -35 -20 -47 -31 l-23 -21 0 26 c0 23 -4 27 -30 27 l-30 0 0 -225 0 -225 35 0 35 0 0 160 c0 124 3 168 15 190 18 34 43 50 79 50 22 0 26 4 26 30 0 33 -14 37 -60 19z"></path>
    <path d="M9440 6928 c0 -200 9 -239 60 -266 34 -18 106 -9 141 17 29 21 29 21 29 1 0 -16 6 -20 35 -20 l35 0 0 225 0 225 -35 0 -35 0 0 -162 c0 -135 -3 -169 -18 -198 -29 -59 -106 -67 -130 -15 -8 17 -12 88 -12 200 l0 175 -35 0 -35 0 0 -182z"></path>
    <path d="M12261 6885 l67 -225 -24 -78 c-13 -42 -24 -80 -24 -84 0 -5 15 -8 33 -8 l32 0 83 288 c46 158 85 297 89 310 5 20 2 22 -28 22 l-34 0 -44 -175 c-25 -96 -46 -173 -49 -171 -3 3 -92 334 -92 344 0 1 -17 2 -39 2 l-38 0 68 -225z"></path>
    <path d="M8160 5990 l0 -320 40 0 40 0 0 150 0 150 95 0 95 0 0 30 0 30 -95 0 -95 0 0 110 0 110 100 0 100 0 0 30 0 30 -140 0 -140 0 0 -320z"></path>
    <path d="M8520 6270 c0 -39 1 -40 35 -40 34 0 35 1 35 40 0 39 -1 40 -35 40 -34 0 -35 -1 -35 -40z"></path>
    <path d="M8720 5990 l0 -320 35 0 35 0 0 320 0 320 -35 0 -35 0 0 -320z"></path>
    <path d="M9760 5990 l0 -320 40 0 40 0 0 150 0 150 95 0 95 0 0 30 0 30 -95 0 -95 0 0 110 0 110 100 0 100 0 0 30 0 30 -140 0 -140 0 0 -320z"></path>
    <path d="M11120 6270 c0 -39 1 -40 35 -40 34 0 35 1 35 40 0 39 -1 40 -35 40 -34 0 -35 -1 -35 -40z"></path>
    <path d="M12070 5990 l0 -320 35 0 35 0 0 320 0 320 -35 0 -35 0 0 -320z"></path>
    <path d="M10913 6213 c-30 -12 -33 -17 -33 -53 0 -39 -1 -40 -35 -40 -31 0 -35 -3 -35 -25 0 -22 4 -25 34 -25 l35 0 3 -180 c4 -209 4 -211 92 -218 l56 -4 0 31 c0 27 -3 31 -28 31 -49 0 -52 11 -52 182 l0 158 40 0 c36 0 40 3 40 25 0 22 -4 25 -40 25 l-39 0 -3 53 -3 54 -32 -14z"></path>
    <path d="M9026 6105 c-34 -23 -36 -23 -36 -5 0 16 -7 20 -35 20 l-35 0 0 -225 0 -225 34 0 35 0 3 174 c3 159 5 177 24 203 25 34 68 42 95 17 17 -16 19 -33 19 -206 l0 -188 34 0 34 0 4 179 c3 174 4 180 27 205 29 31 71 34 94 8 15 -16 17 -46 17 -205 l0 -187 35 0 35 0 0 185 c0 208 -8 247 -57 266 -42 16 -101 5 -134 -27 -25 -24 -29 -25 -35 -10 -9 22 -56 46 -92 46 -16 0 -46 -11 -66 -25z"></path>
    <path d="M10195 6123 c-60 -16 -94 -81 -102 -197 -11 -164 27 -247 121 -261 92 -14 162 27 176 104 l7 41 -33 0 c-30 0 -34 -4 -44 -40 -12 -43 -33 -60 -78 -60 -45 0 -71 36 -78 108 l-7 62 122 0 121 0 0 45 c0 132 -41 194 -131 200 -30 2 -63 1 -74 -2z m104 -66 c14 -15 24 -42 28 -75 l6 -52 -87 0 c-48 0 -86 4 -86 10 0 40 25 112 43 125 31 22 70 18 96 -8z"></path>
    <path d="M10573 6123 c-35 -7 -71 -48 -79 -89 -11 -59 17 -100 101 -149 80 -47 102 -80 88 -129 -10 -35 -45 -53 -87 -42 -21 5 -29 16 -38 51 -11 42 -15 45 -45 45 -38 0 -43 -18 -19 -73 20 -47 47 -67 102 -73 90 -11 150 32 160 113 8 58 -20 98 -101 147 -39 23 -77 55 -85 69 -13 24 -13 30 0 54 28 50 94 43 108 -10 7 -27 14 -33 40 -35 29 -3 32 -1 32 23 0 80 -71 119 -177 98z"></path>
    <path d="M11755 6124 c-39 -10 -67 -29 -81 -56 -23 -45 -18 -58 21 -58 28 0 35 4 35 19 0 27 37 51 77 51 41 0 63 -30 63 -86 l0 -41 -62 -7 c-111 -13 -153 -46 -164 -129 -9 -66 22 -131 71 -147 47 -15 97 -6 135 26 l30 26 0 -26 c0 -23 4 -26 33 -26 l32 0 -3 172 c-3 208 -6 229 -36 257 -24 22 -106 36 -151 25z m113 -295 c-3 -63 -7 -74 -31 -95 -59 -50 -118 -20 -119 60 -2 70 37 104 116 105 l38 1 -4 -71z"></path>
    <path d="M8520 5895 l0 -225 35 0 35 0 0 225 0 225 -35 0 -35 0 0 -225z"></path>
    <path d="M11120 5895 l0 -225 35 0 35 0 0 225 0 225 -35 0 -35 0 0 -225z"></path>
    <path d="M11335 5898 l62 -223 41 -3 c32 -2 41 1 46 15 26 94 116 421 116 426 0 4 -15 7 -33 7 l-33 0 -44 -180 c-24 -99 -47 -180 -50 -180 -3 0 -23 76 -44 168 -22 92 -42 173 -44 180 -2 7 -20 12 -41 12 l-38 0 62 -222z"></path>
    <path d="M870 2345 l0 -1815 950 0 950 0 0 215 0 215 -660 0 -660 0 0 620 0 620 600 0 600 0 -2 213 -3 212 -597 3 -598 2 0 550 0 550 640 0 640 0 0 215 0 215 -930 0 -930 0 0 -1815z"></path>
    <path d="M4850 2345 l0 -1815 850 0 850 0 0 215 0 215 -565 0 -565 0 0 1600 0 1600 -285 0 -285 0 0 -1815z"></path>
    <path d="M8318 3850 c-82 -24 -134 -90 -145 -180 l-6 -50 57 0 c54 0 56 1 56 28 0 15 9 46 19 69 25 53 77 73 141 54 56 -17 74 -54 68 -140 -6 -81 -5 -78 -194 -383 -140 -224 -154 -250 -154 -292 l0 -46 235 0 235 0 0 40 0 40 -174 2 -173 3 148 235 c174 275 193 315 193 420 1 106 -35 164 -119 197 -35 13 -147 15 -187 3z"></path>
    <path d="M8908 3850 c-82 -24 -134 -90 -145 -180 l-6 -50 57 0 c54 0 56 1 56 28 0 15 9 46 19 69 25 53 77 73 141 54 56 -17 74 -54 68 -140 -6 -81 -5 -78 -194 -383 -140 -224 -154 -250 -154 -292 l0 -46 235 0 235 0 0 40 0 40 -174 2 -173 3 148 235 c174 275 193 315 193 420 1 106 -35 164 -119 197 -35 13 -147 15 -187 3z"></path>
    <path d="M11910 2795 l0 -465 54 0 54 0 4 243 c3 219 5 245 23 274 31 53 96 76 148 52 49 -22 52 -36 55 -311 l3 -258 50 0 49 0 0 268 c0 258 -1 269 -22 312 -31 61 -73 82 -155 78 -51 -3 -71 -10 -108 -36 l-45 -32 0 170 0 170 -55 0 -55 0 0 -465z"></path>
    <path d="M9752 2973 c-18 -9 -42 -27 -52 -41 l-20 -25 0 37 0 36 -55 0 -55 0 0 -325 0 -325 54 0 54 0 4 243 c3 208 5 246 21 274 37 69 131 82 162 23 12 -24 15 -77 15 -285 l0 -255 55 0 55 0 0 235 c0 193 3 242 16 275 24 59 85 86 136 59 42 -23 48 -63 48 -324 l0 -245 50 0 50 0 0 261 c0 284 -5 321 -51 365 -55 53 -166 45 -229 -15 l-41 -39 -15 30 c-28 54 -132 76 -202 41z"></path>
    <path d="M10565 2978 c-69 -25 -115 -82 -115 -142 0 -25 2 -26 55 -26 54 0 55 1 55 28 0 56 80 97 143 73 35 -14 57 -64 57 -131 l0 -50 -58 0 c-75 0 -168 -25 -208 -55 -99 -75 -89 -281 16 -337 67 -35 173 -18 233 39 l27 27 0 -37 0 -37 49 0 49 0 -5 268 c-6 311 -11 335 -87 371 -47 23 -158 28 -211 9z m195 -375 c0 -118 -42 -190 -116 -200 -53 -7 -91 24 -104 84 -24 105 42 168 183 172 l37 1 0 -57z"></path>
    <path d="M11210 2979 c-14 -6 -40 -24 -57 -42 l-33 -31 0 37 0 37 -50 0 -50 0 0 -325 0 -325 55 0 55 0 0 228 c0 196 2 232 18 261 23 45 59 71 110 78 l42 6 0 43 c0 43 -1 44 -32 43 -18 0 -44 -5 -58 -10z"></path>
    <path d="M11496 2980 c-41 -13 -85 -57 -109 -110 -17 -37 -22 -70 -25 -186 -6 -218 18 -296 108 -341 33 -17 61 -23 110 -23 113 1 177 46 199 141 18 78 18 79 -44 79 l-55 0 0 -37 c0 -83 -68 -133 -139 -103 -51 21 -65 66 -69 230 -6 211 18 275 105 287 37 5 45 2 73 -25 24 -24 30 -39 30 -71 l0 -41 56 0 57 0 -7 47 c-15 113 -76 164 -196 162 -36 0 -78 -5 -94 -9z"></path>
    <path d="M8120 2665 l0 -25 585 0 585 0 0 25 0 25 -585 0 -585 0 0 -25z"></path>
    <path d="M8318 2400 c-82 -24 -134 -90 -145 -180 l-6 -50 57 0 c54 0 56 1 56 28 0 15 9 46 19 69 25 53 77 73 141 54 56 -17 74 -54 68 -140 -6 -81 -5 -78 -194 -383 -140 -224 -154 -250 -154 -292 l0 -46 235 0 235 0 0 40 0 40 -174 2 -173 3 148 235 c174 275 193 315 193 420 1 106 -35 164 -119 197 -35 13 -147 15 -187 3z"></path>
    <path d="M8885 2392 c-102 -48 -149 -185 -125 -364 11 -92 37 -147 82 -180 28 -19 45 -23 109 -23 66 0 81 4 117 28 l42 27 0 -77 c0 -168 -34 -260 -102 -277 -69 -17 -128 30 -128 104 0 30 0 30 -55 30 -53 0 -55 -1 -55 -27 0 -82 54 -165 118 -183 63 -17 151 -12 200 11 95 46 121 132 129 419 11 418 -31 521 -216 528 -58 2 -86 -2 -116 -16z m171 -83 c46 -38 68 -181 45 -291 -19 -92 -88 -138 -162 -108 -53 22 -64 58 -64 207 0 118 2 134 21 160 11 15 32 34 45 41 28 15 93 10 115 -9z"></path>
    <path d="M8203 1025 c-34 -15 -47 -33 -58 -82 -6 -32 -5 -33 24 -33 26 0 31 4 31 23 0 36 27 67 60 67 41 0 60 -24 60 -74 0 -36 -14 -65 -90 -189 -52 -84 -90 -157 -90 -171 l0 -26 120 0 c113 0 120 1 120 20 0 17 -8 20 -90 22 l-90 3 77 120 c90 141 103 171 103 225 0 54 -14 79 -55 96 -43 17 -81 17 -122 -1z"></path>
    <path d="M8525 1031 c-53 -22 -75 -93 -75 -246 0 -181 27 -243 111 -252 55 -5 89 12 111 57 15 29 18 63 18 200 0 147 -2 169 -20 198 -29 47 -90 65 -145 43z m91 -52 c17 -19 19 -38 19 -194 0 -156 -2 -175 -19 -194 -33 -36 -77 -26 -95 22 -14 37 -14 307 0 344 18 48 62 58 95 22z"></path>
    <path d="M8813 1025 c-34 -15 -47 -33 -58 -82 -6 -32 -5 -33 24 -33 26 0 31 4 31 23 0 36 27 67 60 67 41 0 60 -24 60 -74 0 -36 -14 -65 -90 -189 -52 -84 -90 -157 -90 -171 l0 -26 120 0 c113 0 120 1 120 20 0 17 -8 20 -90 22 l-90 3 77 120 c90 141 103 171 103 225 0 54 -14 79 -55 96 -43 17 -81 17 -122 -1z"></path>
    <path d="M9066 938 c-11 -159 -9 -178 15 -178 12 0 32 11 45 25 37 40 84 32 103 -18 22 -58 9 -170 -22 -189 -19 -12 -64 -9 -75 5 -6 6 -13 24 -17 40 -5 20 -13 27 -31 27 -20 0 -24 -5 -24 -29 0 -17 10 -42 24 -58 22 -25 31 -28 85 -28 52 0 64 4 86 25 47 47 53 212 10 260 -26 29 -80 36 -122 16 l-36 -17 7 32 c3 17 6 56 6 85 l0 54 80 0 c73 0 80 2 80 20 0 19 -7 20 -104 20 l-103 0 -7 -92z"></path>
  </g>
</svg>
